<?xml version="1.0" encoding="UTF-8" ?>
<!DOCTYPE svg PUBLIC "-//W3C//DTD SVG 1.1//EN" "http://www.w3.org/Graphics/SVG/1.1/DTD/svg11.dtd">
<svg width="1356pt" height="739pt" viewBox="0 0 1356 739" version="1.1" xmlns="http://www.w3.org/2000/svg">
<path fill="#2b2e4d" stroke="#2b2e4d" stroke-width="0.09375" opacity="1.00" d=" M 0.00 0.00 L 1356.00 0.00 L 1356.00 739.00 L 0.00 739.00 L 0.00 0.00 M 21.69 1.05 C 21.34 7.31 21.60 13.59 21.59 19.86 C 14.78 20.47 7.94 19.98 1.11 20.15 C 0.97 26.34 0.96 32.54 1.12 38.73 C 7.94 38.92 14.78 38.29 21.58 39.07 C 21.51 258.67 21.49 478.27 21.59 697.86 C 14.77 698.47 7.93 697.97 1.10 698.16 C 0.97 704.37 0.97 710.59 1.09 716.81 C 7.82 716.76 14.56 716.55 21.29 716.84 C 21.89 723.86 21.25 730.91 21.67 737.94 C 27.77 738.01 33.87 738.00 39.96 737.94 C 40.12 730.90 39.87 723.86 40.06 716.82 C 120.70 716.57 201.35 716.80 282.00 716.73 C 626.65 717.26 971.30 716.60 1315.94 716.96 C 1316.13 723.95 1315.87 730.94 1316.04 737.94 C 1322.22 737.98 1328.41 738.08 1334.60 737.81 C 1334.59 730.86 1334.34 723.90 1334.67 716.95 C 1341.41 716.71 1348.15 716.93 1354.90 716.89 C 1355.01 710.60 1355.03 704.31 1354.89 698.03 C 1348.06 698.11 1341.22 698.73 1334.43 697.93 C 1334.48 478.34 1334.52 258.74 1334.41 39.14 C 1340.89 38.54 1347.39 39.01 1353.90 38.85 C 1354.07 32.66 1354.10 26.46 1353.88 20.27 C 1347.48 20.19 1341.08 20.44 1334.69 20.17 C 1334.34 13.84 1334.60 7.50 1334.58 1.16 C 1328.40 0.93 1322.23 1.00 1316.06 1.06 C 1315.87 7.43 1316.12 13.80 1315.95 20.18 C 1235.30 20.42 1154.65 20.20 1074.00 20.27 C 729.35 19.74 384.70 20.40 40.06 20.04 C 39.87 13.71 40.13 7.39 39.94 1.06 C 33.86 0.98 27.77 1.00 21.69 1.05 Z" />
<path fill="#a3322c" stroke="#a3322c" stroke-width="0.09375" opacity="1.00" d=" M 21.69 1.05 C 27.77 1.00 33.86 0.98 39.94 1.06 C 40.13 7.39 39.87 13.71 40.06 20.04 C 384.70 20.40 729.35 19.74 1074.00 20.27 C 1154.65 20.20 1235.30 20.42 1315.95 20.18 C 1316.12 13.80 1315.87 7.43 1316.06 1.06 C 1322.23 1.00 1328.40 0.93 1334.58 1.16 C 1334.60 7.50 1334.34 13.84 1334.69 20.17 C 1341.08 20.44 1347.48 20.19 1353.88 20.27 C 1354.10 26.46 1354.07 32.66 1353.90 38.85 C 1347.39 39.01 1340.89 38.54 1334.41 39.14 C 1334.52 258.74 1334.48 478.34 1334.43 697.93 C 1341.22 698.73 1348.06 698.11 1354.89 698.03 C 1355.03 704.31 1355.01 710.60 1354.90 716.89 C 1348.15 716.93 1341.41 716.71 1334.67 716.95 C 1334.34 723.90 1334.59 730.86 1334.60 737.81 C 1328.41 738.08 1322.22 737.98 1316.04 737.94 C 1315.87 730.94 1316.13 723.95 1315.94 716.96 C 971.30 716.60 626.65 717.26 282.00 716.73 C 201.35 716.80 120.70 716.57 40.06 716.82 C 39.87 723.86 40.12 730.90 39.96 737.94 C 33.87 738.00 27.77 738.01 21.67 737.94 C 21.25 730.91 21.89 723.86 21.29 716.84 C 14.56 716.55 7.82 716.76 1.09 716.81 C 0.97 710.59 0.97 704.37 1.10 698.16 C 7.93 697.97 14.77 698.47 21.59 697.86 C 21.49 478.27 21.51 258.67 21.58 39.07 C 14.78 38.29 7.94 38.92 1.12 38.73 C 0.96 32.54 0.97 26.34 1.11 20.15 C 7.94 19.98 14.78 20.47 21.59 19.86 C 21.60 13.59 21.34 7.31 21.69 1.05 M 40.05 38.82 C 39.96 258.56 39.96 478.30 40.06 698.04 C 127.37 698.27 214.68 698.09 301.99 698.15 C 639.98 697.81 977.97 698.44 1315.95 698.18 C 1316.03 478.44 1316.04 258.70 1315.94 38.96 C 1228.63 38.73 1141.31 38.91 1054.00 38.85 C 716.02 39.19 378.03 38.56 40.05 38.82 Z" />
<path fill="#2b2e4d" stroke="#2b2e4d" stroke-width="0.09375" opacity="1.00" d=" M 40.05 38.82 C 378.03 38.56 716.02 39.19 1054.00 38.85 C 1141.31 38.91 1228.63 38.73 1315.94 38.96 C 1316.04 258.70 1316.03 478.44 1315.95 698.18 C 977.97 698.44 639.98 697.81 301.99 698.15 C 214.68 698.09 127.37 698.27 40.06 698.04 C 39.96 478.30 39.96 258.56 40.05 38.82 M 60.47 60.06 C 60.46 266.22 60.35 472.38 60.33 678.54 C 471.21 678.58 882.10 678.56 1292.99 678.64 C 1294.79 679.11 1295.73 677.75 1295.34 676.07 C 1295.32 470.75 1295.48 265.44 1295.46 60.13 C 883.79 60.14 472.13 59.95 60.47 60.06 Z" />
</svg>
