<?xml version="1.0" encoding="UTF-8" ?>
<!DOCTYPE svg PUBLIC "-//W3C//DTD SVG 1.1//EN" "http://www.w3.org/Graphics/SVG/1.1/DTD/svg11.dtd">
<svg width="72pt" height="72pt" viewBox="0 0 72 72" version="1.1" xmlns="http://www.w3.org/2000/svg">
<path fill="#5fc7d8" stroke="#5fc7d8" stroke-width="0.09375" opacity="0.96" d=" M 35.27 26.31 C 40.94 17.79 45.03 7.72 51.95 0.33 C 62.03 5.17 69.13 15.23 72.00 25.88 L 72.00 26.55 C 71.11 27.53 70.24 28.65 68.83 28.80 C 59.30 31.35 49.72 33.70 40.19 36.24 C 38.12 36.67 37.18 38.76 36.13 40.37 C 35.41 41.51 34.69 42.65 33.98 43.80 C 33.29 44.81 32.63 45.84 31.85 46.78 C 30.78 46.23 29.78 45.54 28.78 44.87 C 27.36 43.16 25.94 41.45 24.53 39.74 C 23.41 37.58 21.75 35.55 21.60 33.03 C 26.15 30.86 32.96 31.70 35.27 26.31 M 37.30 28.26 C 38.37 30.33 39.69 32.28 41.07 34.16 C 47.90 32.67 54.69 30.94 61.53 29.47 C 64.72 28.85 64.11 25.07 63.14 22.87 C 60.79 17.13 56.77 11.52 50.90 9.04 C 45.38 14.59 41.76 21.84 37.30 28.26 M 27.26 33.10 C 29.54 35.93 31.44 39.02 33.47 42.02 C 35.57 39.74 39.03 36.07 35.71 33.26 C 33.84 29.92 29.97 32.43 27.26 33.10 Z" />
<path fill="#deea80" stroke="#deea80" stroke-width="0.09375" opacity="1.00" d=" M 37.30 28.26 C 41.76 21.84 45.38 14.59 50.90 9.04 C 56.77 11.52 60.79 17.13 63.14 22.87 C 64.11 25.07 64.72 28.85 61.53 29.47 C 54.69 30.94 47.90 32.67 41.07 34.16 C 39.69 32.28 38.37 30.33 37.30 28.26 Z" />
<path fill="#deea80" stroke="#deea80" stroke-width="0.09375" opacity="1.00" d=" M 27.26 33.10 C 29.97 32.43 33.84 29.92 35.71 33.26 C 39.03 36.07 35.57 39.74 33.47 42.02 C 31.44 39.02 29.54 35.93 27.26 33.10 Z" />
<path fill="#e6c338" stroke="#e6c338" stroke-width="0.09375" opacity="0.91" d=" M 24.53 39.74 C 25.94 41.45 27.36 43.16 28.78 44.87 C 25.24 51.46 18.95 58.81 10.63 57.37 C 6.50 55.43 2.22 52.76 0.00 48.62 L 0.00 47.11 C 1.00 44.45 2.28 41.77 4.81 40.23 C 6.23 42.01 7.57 43.88 8.75 45.83 C 6.97 47.80 5.62 50.18 6.12 52.95 C 14.75 54.72 21.95 47.36 24.53 39.74 Z" />
<path fill="#e6c338" stroke="#e6c338" stroke-width="0.09375" opacity="0.91" d=" M 33.98 43.80 C 34.69 42.65 35.41 41.51 36.13 40.37 C 37.59 43.23 38.84 46.61 41.99 48.03 C 48.72 51.44 49.03 60.76 45.62 66.66 C 44.23 71.29 38.35 69.91 34.93 72.00 L 33.34 72.00 C 36.83 66.64 43.37 62.19 42.76 55.08 C 42.69 49.70 37.93 46.54 33.98 43.80 Z" />
</svg>
