<?xml version="1.0" encoding="UTF-8" ?>
<!DOCTYPE svg PUBLIC "-//W3C//DTD SVG 1.1//EN" "http://www.w3.org/Graphics/SVG/1.1/DTD/svg11.dtd">
<svg width="615pt" height="342pt" viewBox="0 0 615 342" version="1.1" xmlns="http://www.w3.org/2000/svg">
<path fill="#a3322c" stroke="#a3322c" stroke-width="0.09375" opacity="1.00" d=" M 421.41 114.63 C 430.02 77.07 437.68 39.26 446.68 1.80 C 462.60 36.87 478.51 71.96 494.76 106.88 C 534.30 102.52 573.85 98.32 613.40 94.12 C 584.01 120.37 554.29 146.23 524.65 172.17 C 540.37 207.51 556.96 242.46 572.69 277.80 C 538.24 258.88 504.02 239.52 469.60 220.55 C 440.23 246.64 410.57 272.42 381.13 298.44 C 389.03 260.55 397.84 222.84 405.86 184.97 C 371.37 165.91 337.01 146.63 302.56 127.50 C 342.14 122.95 381.81 119.05 421.41 114.63 M 443.81 49.74 C 438.45 75.21 434.85 101.17 428.56 126.37 C 402.09 131.44 375.07 133.74 348.41 137.84 C 371.52 151.57 396.34 162.35 419.53 175.98 C 415.71 201.71 409.14 227.00 405.78 252.77 C 425.99 235.68 444.28 216.33 464.31 198.97 C 488.33 210.47 511.51 223.63 535.39 235.39 C 527.85 216.09 517.35 198.12 508.73 179.32 C 506.76 174.14 501.37 169.18 502.57 163.51 C 521.18 145.18 541.06 128.10 559.49 109.56 C 533.27 111.57 507.29 116.61 481.17 119.68 C 479.81 119.99 479.27 118.35 478.56 117.55 C 466.23 95.33 456.70 71.63 443.81 49.74 Z" />
<path fill="#e7b969" stroke="#e7b969" stroke-width="0.09375" opacity="1.00" d=" M 443.81 49.74 C 456.70 71.63 466.23 95.33 478.56 117.55 C 479.27 118.35 479.81 119.99 481.17 119.68 C 507.29 116.61 533.27 111.57 559.49 109.56 C 541.06 128.10 521.18 145.18 502.57 163.51 C 501.37 169.18 506.76 174.14 508.73 179.32 C 517.35 198.12 527.85 216.09 535.39 235.39 C 511.51 223.63 488.33 210.47 464.31 198.97 C 444.28 216.33 425.99 235.68 405.78 252.77 C 409.14 227.00 415.71 201.71 419.53 175.98 C 396.34 162.35 371.52 151.57 348.41 137.84 C 375.07 133.74 402.09 131.44 428.56 126.37 C 434.85 101.17 438.45 75.21 443.81 49.74 Z" />
<path fill="#e7b969" stroke="#e7b969" stroke-width="0.09375" opacity="1.00" d=" M 299.59 136.30 C 307.74 150.27 316.13 164.11 324.61 177.89 C 340.81 174.06 357.09 170.58 373.37 167.09 C 362.39 179.48 351.10 191.59 340.05 203.92 C 348.38 217.88 356.83 231.76 365.08 245.76 C 349.76 239.39 334.47 232.94 319.15 226.56 C 308.27 239.12 296.75 251.11 285.62 263.44 C 287.56 247.21 289.23 230.94 290.90 214.67 C 280.86 210.72 271.03 206.26 261.05 202.18 C 254.59 214.59 247.68 226.76 241.18 239.15 C 257.85 255.89 274.65 272.50 291.17 289.39 C 267.45 285.44 243.66 282.01 219.91 278.26 C 208.66 299.36 197.27 320.37 185.83 341.36 C 182.45 318.12 179.18 294.85 176.20 271.55 C 152.40 267.67 128.51 264.38 104.76 260.25 C 126.49 249.65 148.12 238.85 169.75 228.05 C 167.11 204.78 163.46 181.62 160.30 158.40 C 177.29 174.52 193.42 191.53 210.05 208.00 C 231.79 197.04 253.73 186.49 275.40 175.40 C 272.80 180.45 270.17 185.48 267.59 190.54 C 276.40 188.16 285.42 186.63 294.27 184.40 C 295.90 168.35 297.21 152.25 299.59 136.30 Z" />
<path fill="#e7b969" stroke="#e7b969" stroke-width="0.09375" opacity="1.00" d=" M 60.29 185.62 C 67.80 199.88 75.19 214.21 82.28 228.68 C 98.78 225.89 115.38 223.75 131.90 221.08 C 120.28 232.91 108.02 244.11 96.01 255.55 C 103.60 269.98 110.88 284.58 118.13 299.19 C 103.39 291.64 88.59 284.20 73.75 276.86 C 61.93 288.46 49.85 299.80 37.78 311.14 C 40.94 295.15 43.30 279.03 46.48 263.05 C 31.49 255.72 16.74 247.93 1.68 240.74 C 18.33 238.10 34.99 235.59 51.67 233.16 C 54.79 217.36 56.75 201.34 60.29 185.62 Z" />
</svg>
